<mxfile host="app.diagrams.net" modified="2023-10-28T18:23:06.931Z" agent="Mozilla/5.0 (Windows NT 10.0; Win64; x64) AppleWebKit/537.36 (KHTML, like Gecko) Chrome/118.0.0.0 Safari/537.36" etag="ZymYON0XG1x4NcbtzCkK" version="22.0.8" type="device">
  <diagram name="Page-1" id="6UXUTsB8VzPOAwQdt1dL">
    <mxGraphModel dx="1216" dy="553" grid="1" gridSize="10" guides="1" tooltips="1" connect="1" arrows="1" fold="1" page="1" pageScale="1" pageWidth="827" pageHeight="1169" math="0" shadow="0">
      <root>
        <mxCell id="0" />
        <mxCell id="1" parent="0" />
        <mxCell id="YixIoJNFmQiGxdnZH6IC-1" value="" style="image;html=1;image=img/lib/clip_art/computers/Laptop_128x128.png" vertex="1" parent="1">
          <mxGeometry x="30" y="30" width="80" height="80" as="geometry" />
        </mxCell>
        <mxCell id="YixIoJNFmQiGxdnZH6IC-2" value="" style="image;html=1;image=img/lib/clip_art/computers/Laptop_128x128.png" vertex="1" parent="1">
          <mxGeometry x="710" y="30" width="80" height="80" as="geometry" />
        </mxCell>
        <mxCell id="YixIoJNFmQiGxdnZH6IC-3" value="" style="image;html=1;image=img/lib/clip_art/computers/Laptop_128x128.png" vertex="1" parent="1">
          <mxGeometry x="30" y="450" width="80" height="80" as="geometry" />
        </mxCell>
        <mxCell id="YixIoJNFmQiGxdnZH6IC-4" value="" style="image;html=1;image=img/lib/clip_art/computers/Laptop_128x128.png" vertex="1" parent="1">
          <mxGeometry x="680" y="470" width="80" height="80" as="geometry" />
        </mxCell>
        <mxCell id="YixIoJNFmQiGxdnZH6IC-5" value="" style="image;html=1;image=img/lib/clip_art/computers/Laptop_128x128.png" vertex="1" parent="1">
          <mxGeometry x="360" y="980" width="80" height="80" as="geometry" />
        </mxCell>
        <mxCell id="YixIoJNFmQiGxdnZH6IC-6" value="" style="image;html=1;image=img/lib/clip_art/networking/Router_Icon_128x128.png" vertex="1" parent="1">
          <mxGeometry x="360" y="320" width="80" height="80" as="geometry" />
        </mxCell>
        <mxCell id="YixIoJNFmQiGxdnZH6IC-7" value="" style="image;html=1;image=img/lib/clip_art/networking/Switch_128x128.png" vertex="1" parent="1">
          <mxGeometry x="40" y="270" width="80" height="80" as="geometry" />
        </mxCell>
        <mxCell id="YixIoJNFmQiGxdnZH6IC-8" value="" style="image;html=1;image=img/lib/clip_art/networking/Switch_128x128.png" vertex="1" parent="1">
          <mxGeometry x="710" y="220" width="80" height="80" as="geometry" />
        </mxCell>
        <mxCell id="YixIoJNFmQiGxdnZH6IC-9" value="" style="image;html=1;image=img/lib/clip_art/networking/Switch_128x128.png" vertex="1" parent="1">
          <mxGeometry x="550" y="470" width="80" height="80" as="geometry" />
        </mxCell>
        <mxCell id="YixIoJNFmQiGxdnZH6IC-10" value="" style="image;html=1;image=img/lib/clip_art/networking/Switch_128x128.png" vertex="1" parent="1">
          <mxGeometry x="30" y="560" width="80" height="80" as="geometry" />
        </mxCell>
        <mxCell id="YixIoJNFmQiGxdnZH6IC-11" value="" style="image;html=1;image=img/lib/clip_art/networking/Switch_128x128.png" vertex="1" parent="1">
          <mxGeometry x="570" y="950" width="80" height="80" as="geometry" />
        </mxCell>
        <mxCell id="YixIoJNFmQiGxdnZH6IC-12" value="" style="image;html=1;image=img/lib/clip_art/networking/Wireless_Router_128x128.png" vertex="1" parent="1">
          <mxGeometry x="580" y="570" width="80" height="80" as="geometry" />
        </mxCell>
        <mxCell id="YixIoJNFmQiGxdnZH6IC-13" value="" style="image;html=1;image=img/lib/clip_art/networking/Wireless_Router_128x128.png" vertex="1" parent="1">
          <mxGeometry x="280" y="50" width="80" height="80" as="geometry" />
        </mxCell>
        <mxCell id="YixIoJNFmQiGxdnZH6IC-14" value="" style="image;html=1;image=img/lib/clip_art/networking/Wireless_Router_128x128.png" vertex="1" parent="1">
          <mxGeometry x="710" y="310" width="80" height="80" as="geometry" />
        </mxCell>
        <mxCell id="YixIoJNFmQiGxdnZH6IC-15" value="" style="image;html=1;image=img/lib/clip_art/networking/Wireless_Router_128x128.png" vertex="1" parent="1">
          <mxGeometry x="40" y="740" width="80" height="80" as="geometry" />
        </mxCell>
        <mxCell id="YixIoJNFmQiGxdnZH6IC-16" value="" style="image;html=1;image=img/lib/clip_art/networking/Wireless_Router_128x128.png" vertex="1" parent="1">
          <mxGeometry x="450" y="1030" width="80" height="80" as="geometry" />
        </mxCell>
        <mxCell id="YixIoJNFmQiGxdnZH6IC-17" value="" style="image;html=1;image=img/lib/clip_art/computers/Monitor_Tower_128x128.png" vertex="1" parent="1">
          <mxGeometry x="140" y="540" width="80" height="80" as="geometry" />
        </mxCell>
        <mxCell id="YixIoJNFmQiGxdnZH6IC-18" value="" style="image;html=1;image=img/lib/clip_art/computers/Monitor_Tower_128x128.png" vertex="1" parent="1">
          <mxGeometry x="730" y="130" width="80" height="80" as="geometry" />
        </mxCell>
        <mxCell id="YixIoJNFmQiGxdnZH6IC-19" value="" style="image;html=1;image=img/lib/clip_art/computers/Monitor_Tower_128x128.png" vertex="1" parent="1">
          <mxGeometry x="40" y="660" width="80" height="80" as="geometry" />
        </mxCell>
        <mxCell id="YixIoJNFmQiGxdnZH6IC-20" value="" style="image;html=1;image=img/lib/clip_art/computers/Monitor_Tower_128x128.png" vertex="1" parent="1">
          <mxGeometry x="580" y="150" width="80" height="80" as="geometry" />
        </mxCell>
        <mxCell id="YixIoJNFmQiGxdnZH6IC-21" value="" style="image;html=1;image=img/lib/clip_art/computers/Monitor_Tower_128x128.png" vertex="1" parent="1">
          <mxGeometry x="590" y="250" width="80" height="80" as="geometry" />
        </mxCell>
        <mxCell id="YixIoJNFmQiGxdnZH6IC-22" value="" style="image;html=1;image=img/lib/clip_art/computers/Monitor_Tower_128x128.png" vertex="1" parent="1">
          <mxGeometry x="160" y="660" width="80" height="80" as="geometry" />
        </mxCell>
        <mxCell id="YixIoJNFmQiGxdnZH6IC-23" value="" style="image;html=1;image=img/lib/clip_art/computers/Monitor_Tower_128x128.png" vertex="1" parent="1">
          <mxGeometry x="170" y="260" width="80" height="80" as="geometry" />
        </mxCell>
        <mxCell id="YixIoJNFmQiGxdnZH6IC-24" value="" style="image;html=1;image=img/lib/clip_art/computers/Monitor_Tower_128x128.png" vertex="1" parent="1">
          <mxGeometry x="20" y="150" width="80" height="80" as="geometry" />
        </mxCell>
        <mxCell id="YixIoJNFmQiGxdnZH6IC-25" value="" style="image;html=1;image=img/lib/clip_art/computers/Monitor_Tower_128x128.png" vertex="1" parent="1">
          <mxGeometry x="170" y="140" width="80" height="80" as="geometry" />
        </mxCell>
        <mxCell id="YixIoJNFmQiGxdnZH6IC-26" value="" style="image;html=1;image=img/lib/clip_art/computers/iPad_128x128.png" vertex="1" parent="1">
          <mxGeometry x="130" y="440" width="80" height="80" as="geometry" />
        </mxCell>
        <mxCell id="YixIoJNFmQiGxdnZH6IC-27" value="" style="image;html=1;image=img/lib/clip_art/computers/iPad_128x128.png" vertex="1" parent="1">
          <mxGeometry x="170" y="30" width="80" height="80" as="geometry" />
        </mxCell>
        <mxCell id="YixIoJNFmQiGxdnZH6IC-28" value="" style="image;html=1;image=img/lib/clip_art/computers/iPad_128x128.png" vertex="1" parent="1">
          <mxGeometry x="570" y="30" width="80" height="80" as="geometry" />
        </mxCell>
        <mxCell id="YixIoJNFmQiGxdnZH6IC-29" value="" style="image;html=1;image=img/lib/clip_art/computers/iPad_128x128.png" vertex="1" parent="1">
          <mxGeometry x="700" y="580" width="80" height="80" as="geometry" />
        </mxCell>
        <mxCell id="YixIoJNFmQiGxdnZH6IC-30" value="" style="image;html=1;image=img/lib/clip_art/computers/iPad_128x128.png" vertex="1" parent="1">
          <mxGeometry x="440" y="950" width="80" height="80" as="geometry" />
        </mxCell>
        <mxCell id="YixIoJNFmQiGxdnZH6IC-31" value="" style="image;html=1;image=img/lib/clip_art/computers/Server_128x128.png" vertex="1" parent="1">
          <mxGeometry x="360" y="500" width="80" height="80" as="geometry" />
        </mxCell>
        <mxCell id="YixIoJNFmQiGxdnZH6IC-33" style="edgeStyle=orthogonalEdgeStyle;rounded=0;orthogonalLoop=1;jettySize=auto;html=1;exitX=0.5;exitY=1;exitDx=0;exitDy=0;" edge="1" parent="1" source="YixIoJNFmQiGxdnZH6IC-26" target="YixIoJNFmQiGxdnZH6IC-26">
          <mxGeometry relative="1" as="geometry" />
        </mxCell>
        <mxCell id="YixIoJNFmQiGxdnZH6IC-38" value="" style="image;html=1;image=img/lib/clip_art/computers/Monitor_Tower_128x128.png" vertex="1" parent="1">
          <mxGeometry x="340" y="1060" width="80" height="80" as="geometry" />
        </mxCell>
        <mxCell id="YixIoJNFmQiGxdnZH6IC-39" value="" style="image;html=1;image=img/lib/clip_art/computers/Monitor_Tower_128x128.png" vertex="1" parent="1">
          <mxGeometry x="610" y="1030" width="80" height="80" as="geometry" />
        </mxCell>
        <mxCell id="YixIoJNFmQiGxdnZH6IC-40" value="" style="edgeStyle=orthogonalEdgeStyle;rounded=0;orthogonalLoop=1;jettySize=auto;html=1;" edge="1" parent="1" source="YixIoJNFmQiGxdnZH6IC-16" target="YixIoJNFmQiGxdnZH6IC-39">
          <mxGeometry relative="1" as="geometry" />
        </mxCell>
        <mxCell id="YixIoJNFmQiGxdnZH6IC-41" value="" style="image;html=1;image=img/lib/clip_art/computers/Monitor_Tower_128x128.png" vertex="1" parent="1">
          <mxGeometry x="210" y="1020" width="80" height="80" as="geometry" />
        </mxCell>
        <mxCell id="YixIoJNFmQiGxdnZH6IC-42" value="" style="image;html=1;image=img/lib/clip_art/computers/Monitor_Tower_128x128.png" vertex="1" parent="1">
          <mxGeometry x="580" y="690" width="80" height="80" as="geometry" />
        </mxCell>
        <mxCell id="YixIoJNFmQiGxdnZH6IC-43" value="" style="image;html=1;image=img/lib/clip_art/computers/Monitor_Tower_128x128.png" vertex="1" parent="1">
          <mxGeometry x="710" y="700" width="80" height="80" as="geometry" />
        </mxCell>
        <mxCell id="YixIoJNFmQiGxdnZH6IC-44" value="" style="image;html=1;image=img/lib/clip_art/computers/Monitor_Tower_128x128.png" vertex="1" parent="1">
          <mxGeometry x="620" y="800" width="80" height="80" as="geometry" />
        </mxCell>
      </root>
    </mxGraphModel>
  </diagram>
</mxfile>
